# xmcd
#
# Track frame offsets: 
#        182
#        19657
#        36692
#        52805
#        66767
#        85167
#        102307
#        121492
#        143365
#        162707
#        180390
#
# Disc length: 2719 seconds
#
# Revision: 4
# Processed by: cddbd v1.5.1PL2 Copyright (c) Steve Scherf et al.
# Submitted via: ExactAudioCopy v0.90b4
#
DISCID=8f0a9d0b
DTITLE=Vince Gill - When Love Finds You
DYEAR=1994
DGENRE=Country
TTITLE0=Whenever You Come Around
TTITLE1=You Better Think Twice
TTITLE2=A Real Lady's Man
TTITLE3=What The Cowgirls Do
TTITLE4=When Love Finds You
TTITLE5=If There's Anything I Can Do
TTITLE6=South Side Of Dixie
TTITLE7=Maybe Tonight
TTITLE8=Which Bridge To Cross (Which Bridge To Burn)
TTITLE9=If I Had My Way
TTITLE10=Go Rest High On That Mountain
EXTD=
EXTT0=
EXTT1=
EXTT2=
EXTT3=
EXTT4=
EXTT5=
EXTT6=
EXTT7=
EXTT8=
EXTT9=
EXTT10=
PLAYORDER=
